<?xml version="1.0" standalone="no"?>
<!DOCTYPE svg PUBLIC "-//W3C//DTD SVG 20010904//EN"
 "http://www.w3.org/TR/2001/REC-SVG-20010904/DTD/svg10.dtd">
<svg version="1.0" xmlns="http://www.w3.org/2000/svg"
 width="512.000000pt" height="512.000000pt" viewBox="0 0 512.000000 512.000000"
 preserveAspectRatio="xMidYMid meet">

<g transform="translate(0.000000,512.000000) scale(0.100000,-0.100000)"
fill="#000000" stroke="none">
<path d="M1933 5106 c-102 -33 -176 -97 -222 -196 -24 -50 -26 -69 -29 -202
l-4 -147 -426 -3 -427 -3 -56 -26 c-79 -37 -133 -90 -171 -167 l-33 -66 -3
-188 -4 -188 2002 0 2002 0 -4 188 -3 188 -33 66 c-38 77 -92 130 -171 167
l-56 26 -427 3 -426 3 -4 147 c-3 134 -5 152 -29 203 -37 79 -90 133 -167 171
l-67 33 -600 2 c-476 2 -609 -1 -642 -11z m1182 -426 l0 -115 -555 0 -555 0
-3 104 c-1 58 0 111 2 118 5 11 106 13 558 11 l553 -3 0 -115z"/>
<path d="M975 3528 c3 -40 53 -782 110 -1648 58 -866 109 -1595 115 -1619 15
-59 34 -94 78 -143 47 -52 95 -82 162 -102 48 -14 176 -16 1121 -16 1040 0
1069 0 1132 20 105 33 198 130 226 235 6 22 58 753 115 1625 58 872 108 1615
111 1653 l6 67 -1591 0 -1591 0 6 -72z m881 -763 c20 -15 42 -42 49 -59 16
-39 179 -1905 170 -1947 -4 -17 -23 -47 -44 -69 -40 -42 -87 -57 -147 -46 -43
9 -109 72 -118 112 -13 63 -167 1891 -162 1918 8 40 52 95 90 112 47 22 118
12 162 -21z m792 8 c14 -10 35 -32 46 -47 21 -27 21 -33 21 -1006 0 -973 0
-979 -21 -1006 -39 -53 -71 -69 -134 -69 -63 0 -95 16 -134 69 -21 27 -21 36
-24 979 -1 524 0 966 3 984 7 40 49 91 90 109 40 19 120 12 153 -13z m776 13
c39 -16 83 -70 92 -112 5 -27 -149 -1855 -162 -1917 -3 -15 -22 -45 -43 -67
-40 -42 -87 -57 -148 -45 -48 9 -109 69 -118 115 -5 31 147 1855 161 1923 18
88 129 140 218 103z"/>
</g>
</svg>
