<?xml version="1.0" standalone="no"?>
<!DOCTYPE svg PUBLIC "-//W3C//DTD SVG 20010904//EN"
 "http://www.w3.org/TR/2001/REC-SVG-20010904/DTD/svg10.dtd">
<svg version="1.0" xmlns="http://www.w3.org/2000/svg"
 width="512.000000pt" height="512.000000pt" viewBox="0 0 512.000000 512.000000"
 preserveAspectRatio="xMidYMid meet">

<g transform="translate(0.000000,512.000000) scale(0.100000,-0.100000)"
fill="#000000" stroke="none">
<path d="M400 5107 c-49 -16 -133 -102 -148 -153 -18 -60 -18 -4728 0 -4788
16 -55 99 -138 154 -154 60 -17 3288 -17 3348 0 55 16 138 99 154 154 8 28 12
128 12 310 l0 269 453 455 c514 515 501 499 501 640 0 100 -24 160 -89 225
-65 66 -125 90 -225 90 -131 0 -147 -11 -412 -274 l-228 -225 -2 1312 -3 1312
-418 417 -417 418 -1323 2 c-944 1 -1332 -2 -1357 -10z m2560 -443 c0 -204 4
-310 12 -338 16 -55 99 -138 154 -154 28 -8 134 -12 338 -12 l296 0 0 -1333 0
-1332 -151 -150 c-83 -83 -157 -162 -164 -176 -19 -35 -88 -445 -81 -475 4
-13 18 -31 32 -41 25 -16 34 -15 188 10 88 15 164 27 169 27 4 0 7 -108 7
-240 l0 -241 -25 -24 -24 -25 -1631 0 -1631 0 -24 25 -25 24 0 2351 0 2351 25
24 24 25 1256 0 1255 0 0 -296z m425 -84 l260 -260 -238 0 -238 0 -24 25 -25
24 0 236 c0 129 1 235 3 235 1 0 119 -117 262 -260z m1263 -2607 c61 -45 85
-117 63 -184 -8 -24 -134 -157 -436 -459 l-425 -425 -112 113 -113 112 420
421 c231 232 434 427 450 435 40 19 119 12 153 -13z m-1024 -1072 l58 -59 -67
-11 c-37 -7 -69 -10 -72 -8 -4 4 16 137 21 137 1 0 28 -26 60 -59z"/>
<path d="M745 4455 c-16 -15 -25 -36 -25 -55 0 -19 9 -40 25 -55 l24 -25 391
0 391 0 24 25 c16 15 25 36 25 55 0 19 -9 40 -25 55 l-24 25 -391 0 -391 0
-24 -25z"/>
<path d="M745 4135 c-16 -15 -25 -36 -25 -55 0 -19 9 -40 25 -55 l24 -25 591
0 591 0 24 25 c33 32 33 78 0 110 l-24 25 -591 0 -591 0 -24 -25z"/>
<path d="M745 3415 c-25 -24 -25 -26 -25 -215 0 -257 -17 -240 240 -240 257 0
240 -17 240 240 0 257 17 240 -240 240 -189 0 -191 0 -215 -25z m295 -215 l0
-80 -80 0 -80 0 0 80 0 80 80 0 80 0 0 -80z"/>
<path d="M1385 3415 c-16 -15 -25 -36 -25 -55 0 -19 9 -40 25 -55 l24 -25 911
0 911 0 24 25 c16 15 25 36 25 55 0 19 -9 40 -25 55 l-24 25 -911 0 -911 0
-24 -25z"/>
<path d="M1385 3095 c-16 -15 -25 -36 -25 -55 0 -19 9 -40 25 -55 l24 -25 471
0 471 0 24 25 c33 32 33 78 0 110 l-24 25 -471 0 -471 0 -24 -25z"/>
<path d="M745 2615 c-25 -24 -25 -26 -25 -215 0 -257 -17 -240 240 -240 257 0
240 -17 240 240 0 257 17 240 -240 240 -189 0 -191 0 -215 -25z m295 -215 l0
-80 -80 0 -80 0 0 80 0 80 80 0 80 0 0 -80z"/>
<path d="M1385 2615 c-16 -15 -25 -36 -25 -55 0 -19 9 -40 25 -55 l24 -25 991
0 991 0 24 25 c16 15 25 36 25 55 0 19 -9 40 -25 55 l-24 25 -991 0 -991 0
-24 -25z"/>
<path d="M1385 2295 c-16 -15 -25 -36 -25 -55 0 -19 9 -40 25 -55 l24 -25 671
0 671 0 24 25 c33 32 33 78 0 110 l-24 25 -671 0 -671 0 -24 -25z"/>
<path d="M745 1815 c-25 -24 -25 -26 -25 -215 0 -257 -17 -240 240 -240 257 0
240 -17 240 240 0 257 17 240 -240 240 -189 0 -191 0 -215 -25z m295 -215 l0
-80 -80 0 -80 0 0 80 0 80 80 0 80 0 0 -80z"/>
<path d="M1385 1815 c-16 -15 -25 -36 -25 -55 0 -19 9 -40 25 -55 l24 -25 991
0 991 0 24 25 c16 15 25 36 25 55 0 19 -9 40 -25 55 l-24 25 -991 0 -991 0
-24 -25z"/>
<path d="M1385 1495 c-16 -15 -25 -36 -25 -55 0 -19 9 -40 25 -55 l24 -25 471
0 471 0 24 25 c33 32 33 78 0 110 l-24 25 -471 0 -471 0 -24 -25z"/>
<path d="M745 1015 c-25 -24 -25 -26 -25 -215 0 -257 -17 -240 240 -240 257 0
240 -17 240 240 0 257 17 240 -240 240 -189 0 -191 0 -215 -25z m295 -215 l0
-80 -80 0 -80 0 0 80 0 80 80 0 80 0 0 -80z"/>
<path d="M1385 1015 c-16 -15 -25 -36 -25 -55 0 -19 9 -40 25 -55 l24 -25 911
0 911 0 24 25 c16 15 25 36 25 55 0 19 -9 40 -25 55 l-24 25 -911 0 -911 0
-24 -25z"/>
<path d="M1385 695 c-16 -15 -25 -36 -25 -55 0 -19 9 -40 25 -55 l24 -25 671
0 671 0 24 25 c33 32 33 78 0 110 l-24 25 -671 0 -671 0 -24 -25z"/>
</g>
</svg>
